<svg id="Layer_1" data-name="Layer 1" xmlns="http://www.w3.org/2000/svg" viewBox="0 0 88.27 72"><defs><style>.cls-1{fill:#353737;}.cls-1,.cls-2,.cls-3{fill-rule:evenodd;}.cls-2{fill:#e61e26;}.cls-3{fill:#be7c2a;}</style></defs><title>Logo LRT Jakarta</title><path class="cls-1" d="M27.86,76.63l2-8.88h2L30.2,75.14h4.94l-.34,1.49Zm10.26,0h-2l2-8.88h4.3a5.64,5.64,0,0,1,1.73.21,2,2,0,0,1,1,.77,2.35,2.35,0,0,1,.37,1.35A2.51,2.51,0,0,1,44.82,72a3.71,3.71,0,0,1-2.24.91,3.31,3.31,0,0,1,.72.83,19.62,19.62,0,0,1,1.49,2.94H42.65c-.17-.5-.51-1.28-1-2.34a2.73,2.73,0,0,0-.87-1.15,2,2,0,0,0-1-.18H39l-.84,3.67Zm1.14-5h1.06a8.11,8.11,0,0,0,2.13-.17,1.71,1.71,0,0,0,.83-.56,1.29,1.29,0,0,0,.29-.79.77.77,0,0,0-.43-.72A2.7,2.7,0,0,0,42,69.24H39.81l-.55,2.39Zm10.58,5h-2l1.69-7.39H46.69L47,67.75h7.64l-.33,1.49h-2.8l-1.69,7.39ZM57.65,74l1.2-.08a4.51,4.51,0,0,0-.11.76,1,1,0,0,0,.34.79,1.38,1.38,0,0,0,.93.29,1.59,1.59,0,0,0,.77-.18,1.34,1.34,0,0,0,.53-.55,4,4,0,0,0,.33-1l1.44-6.29h1.28l-1.48,6.49a3.31,3.31,0,0,1-1,2,2.86,2.86,0,0,1-1.86.59,2.75,2.75,0,0,1-1.81-.51,1.73,1.73,0,0,1-.62-1.43,3.08,3.08,0,0,1,.1-.8Zm5.94,2.59H65l1.55-2.55h3.94L71,76.63h1.26l-1.6-8.88H69.08l-5.49,8.88Zm3.56-3.47,1.57-2.63a14.62,14.62,0,0,0,1-1.81A20.19,20.19,0,0,0,70,70.93l.38,2.23Zm6.35,3.47,2-8.88h1.28l-1,4.29,5.29-4.29H83l-4.52,3.62,3.29,5.26H80.3l-2.8-4.5-2,1.63-.66,2.87Zm8.16,0h1.43l1.55-2.55h3.94L89,76.63H90.3l-1.6-8.88H87.15l-5.49,8.88Zm3.56-3.47,1.56-2.63a14.87,14.87,0,0,0,1-1.81,20.19,20.19,0,0,0,.29,2.21l.37,2.23Zm6.41,3.47,2-8.88h4.06a6.88,6.88,0,0,1,1.83.19,1.72,1.72,0,0,1,1,.69,2.17,2.17,0,0,1,.36,1.28,2.33,2.33,0,0,1-.78,1.8,4.37,4.37,0,0,1-2.5.93,3.46,3.46,0,0,1,.81.7,7.51,7.51,0,0,1,1,1.62l.75,1.67H98.67L98,75a7.3,7.3,0,0,0-.86-1.55,1.6,1.6,0,0,0-.67-.6,3.06,3.06,0,0,0-1.12-.14h-1.5l-.91,3.94ZM94,71.72h1.79c.83,0,1.37,0,1.62,0a3.44,3.44,0,0,0,1.21-.31,1.87,1.87,0,0,0,.73-.63,1.58,1.58,0,0,0,.26-.86,1.21,1.21,0,0,0-.2-.68.89.89,0,0,0-.5-.38,3.67,3.67,0,0,0-1.06-.11H94.72l-.68,3Zm9.62,4.91,1.8-7.87H102.2l.23-1h7.7l-.23,1h-3.15l-1.81,7.87Zm3.84,0h1.43l1.56-2.55h3.93l.46,2.55h1.26l-1.6-8.88H113l-5.49,8.88Zm3.56-3.47,1.57-2.63a16.11,16.11,0,0,0,1-1.81,20.19,20.19,0,0,0,.29,2.21l.37,2.23Z" transform="translate(-27.86 -4.78)"/><path class="cls-2" d="M50.46,48.81l-5.15,0C68.27,80.61,111.65,50.9,95,20,85.15,31.13,71.54,36.42,54.87,38.82c-.84.12-1,.08-2.74.39A70.44,70.44,0,0,0,94,29.69C99,54.72,65.32,69,50.46,48.81Z" transform="translate(-27.86 -4.78)"/><path class="cls-2" d="M34.67,42.37c18,2.65,35.6,2,52.35-5.07l3.49,5.86C70.48,47.58,52,47.05,34.67,42.37Z" transform="translate(-27.86 -4.78)"/><path class="cls-3" d="M90.67,8.42c-6.25,11.14-16,18.66-27,24.83,15-4.62,27.33-11.8,34.66-24Z" transform="translate(-27.86 -4.78)"/><path class="cls-3" d="M41.49,38.88l3.73.08C42,17,63.08,1.62,81.86,12.07l3.33-2.85C59-5,36.62,17.73,41.49,38.88Z" transform="translate(-27.86 -4.78)"/></svg>